<mxfile host="app.diagrams.net" modified="2024-02-19T14:03:19.772Z" agent="Mozilla/5.0 (Windows NT 10.0; Win64; x64) AppleWebKit/537.36 (KHTML, like Gecko) Chrome/121.0.0.0 Safari/537.36" etag="8VOVpgDlSh01gPIvFQOW" version="23.1.5" type="device">
  <diagram name="Page-1" id="8HnxR_FKR9vPY43L_gN4">
    <mxGraphModel dx="1050" dy="565" grid="1" gridSize="10" guides="1" tooltips="1" connect="1" arrows="1" fold="1" page="1" pageScale="1" pageWidth="850" pageHeight="1100" math="0" shadow="0">
      <root>
        <mxCell id="0" />
        <mxCell id="1" parent="0" />
        <mxCell id="fBiR9kypp7mtVQSwHApV-1" value="" style="verticalLabelPosition=bottom;sketch=0;aspect=fixed;html=1;verticalAlign=top;strokeColor=none;align=center;outlineConnect=0;shape=mxgraph.citrix.laptop_2;" vertex="1" parent="1">
          <mxGeometry x="330" y="260" width="116" height="86.5" as="geometry" />
        </mxCell>
        <mxCell id="fBiR9kypp7mtVQSwHApV-2" value="Physical Machne&amp;nbsp;" style="text;html=1;align=center;verticalAlign=middle;whiteSpace=wrap;rounded=0;" vertex="1" parent="1">
          <mxGeometry x="210" y="260" width="170" height="80" as="geometry" />
        </mxCell>
        <mxCell id="fBiR9kypp7mtVQSwHApV-3" value="" style="verticalLabelPosition=bottom;html=1;verticalAlign=top;align=center;strokeColor=none;fillColor=#00BEF2;shape=mxgraph.azure.virtual_machine_feature;pointerEvents=1;" vertex="1" parent="1">
          <mxGeometry x="770" y="260" width="140" height="90" as="geometry" />
        </mxCell>
        <mxCell id="fBiR9kypp7mtVQSwHApV-4" value="Virtual machine&amp;nbsp;" style="text;html=1;align=center;verticalAlign=middle;whiteSpace=wrap;rounded=0;" vertex="1" parent="1">
          <mxGeometry x="720" y="330" width="260" height="90" as="geometry" />
        </mxCell>
        <mxCell id="fBiR9kypp7mtVQSwHApV-5" style="edgeStyle=orthogonalEdgeStyle;rounded=0;orthogonalLoop=1;jettySize=auto;html=1;entryX=0;entryY=0.5;entryDx=0;entryDy=0;entryPerimeter=0;" edge="1" parent="1" source="fBiR9kypp7mtVQSwHApV-1" target="fBiR9kypp7mtVQSwHApV-3">
          <mxGeometry relative="1" as="geometry" />
        </mxCell>
        <mxCell id="fBiR9kypp7mtVQSwHApV-6" value="connect&amp;nbsp;" style="text;html=1;align=center;verticalAlign=middle;whiteSpace=wrap;rounded=0;" vertex="1" parent="1">
          <mxGeometry x="565" y="260" width="60" height="30" as="geometry" />
        </mxCell>
        <mxCell id="fBiR9kypp7mtVQSwHApV-7" value="Laptop" style="text;html=1;align=center;verticalAlign=middle;whiteSpace=wrap;rounded=0;" vertex="1" parent="1">
          <mxGeometry x="330" y="210" width="90" height="30" as="geometry" />
        </mxCell>
        <mxCell id="fBiR9kypp7mtVQSwHApV-8" value="" style="group" vertex="1" connectable="0" parent="1">
          <mxGeometry x="430" y="430" width="340" height="350" as="geometry" />
        </mxCell>
        <mxCell id="fBiR9kypp7mtVQSwHApV-9" value="" style="ellipse;whiteSpace=wrap;html=1;" vertex="1" parent="fBiR9kypp7mtVQSwHApV-8">
          <mxGeometry y="10" width="340" height="340" as="geometry" />
        </mxCell>
        <mxCell id="fBiR9kypp7mtVQSwHApV-10" value="CLI&amp;nbsp;" style="text;html=1;align=center;verticalAlign=middle;whiteSpace=wrap;rounded=0;" vertex="1" parent="fBiR9kypp7mtVQSwHApV-8">
          <mxGeometry x="115" width="110" height="50" as="geometry" />
        </mxCell>
        <mxCell id="fBiR9kypp7mtVQSwHApV-11" value="" style="group" vertex="1" connectable="0" parent="fBiR9kypp7mtVQSwHApV-8">
          <mxGeometry x="50" y="60" width="240" height="240" as="geometry" />
        </mxCell>
        <mxCell id="fBiR9kypp7mtVQSwHApV-12" value="" style="ellipse;whiteSpace=wrap;html=1;aspect=fixed;" vertex="1" parent="fBiR9kypp7mtVQSwHApV-11">
          <mxGeometry width="240" height="240" as="geometry" />
        </mxCell>
        <mxCell id="fBiR9kypp7mtVQSwHApV-13" value="" style="ellipse;whiteSpace=wrap;html=1;aspect=fixed;" vertex="1" parent="fBiR9kypp7mtVQSwHApV-11">
          <mxGeometry x="70" y="80" width="80" height="80" as="geometry" />
        </mxCell>
        <mxCell id="fBiR9kypp7mtVQSwHApV-14" value="Hardware&amp;nbsp;" style="text;html=1;align=center;verticalAlign=middle;whiteSpace=wrap;rounded=0;" vertex="1" parent="fBiR9kypp7mtVQSwHApV-11">
          <mxGeometry x="80" y="100" width="60" height="30" as="geometry" />
        </mxCell>
        <mxCell id="fBiR9kypp7mtVQSwHApV-15" style="edgeStyle=orthogonalEdgeStyle;rounded=0;orthogonalLoop=1;jettySize=auto;html=1;entryX=0.75;entryY=0;entryDx=0;entryDy=0;" edge="1" parent="fBiR9kypp7mtVQSwHApV-11" source="fBiR9kypp7mtVQSwHApV-16" target="fBiR9kypp7mtVQSwHApV-14">
          <mxGeometry relative="1" as="geometry" />
        </mxCell>
        <mxCell id="fBiR9kypp7mtVQSwHApV-16" value="Shell" style="text;html=1;align=center;verticalAlign=middle;whiteSpace=wrap;rounded=0;" vertex="1" parent="fBiR9kypp7mtVQSwHApV-11">
          <mxGeometry x="100" y="20" width="60" height="30" as="geometry" />
        </mxCell>
        <mxCell id="fBiR9kypp7mtVQSwHApV-17" value="Command&amp;nbsp;" style="text;html=1;align=center;verticalAlign=middle;whiteSpace=wrap;rounded=0;" vertex="1" parent="fBiR9kypp7mtVQSwHApV-8">
          <mxGeometry x="100" y="30" width="60" height="30" as="geometry" />
        </mxCell>
        <mxCell id="fBiR9kypp7mtVQSwHApV-18" style="edgeStyle=orthogonalEdgeStyle;rounded=0;orthogonalLoop=1;jettySize=auto;html=1;entryX=0.361;entryY=-0.083;entryDx=0;entryDy=0;entryPerimeter=0;" edge="1" parent="fBiR9kypp7mtVQSwHApV-8" source="fBiR9kypp7mtVQSwHApV-10" target="fBiR9kypp7mtVQSwHApV-16">
          <mxGeometry relative="1" as="geometry" />
        </mxCell>
        <mxCell id="fBiR9kypp7mtVQSwHApV-19" style="edgeStyle=orthogonalEdgeStyle;rounded=0;orthogonalLoop=1;jettySize=auto;html=1;entryX=1;entryY=0.25;entryDx=0;entryDy=0;" edge="1" parent="fBiR9kypp7mtVQSwHApV-8" source="fBiR9kypp7mtVQSwHApV-13" target="fBiR9kypp7mtVQSwHApV-17">
          <mxGeometry relative="1" as="geometry" />
        </mxCell>
        <mxCell id="fBiR9kypp7mtVQSwHApV-20" value="&lt;font style=&quot;font-size: 16px;&quot;&gt;Linux Working&amp;nbsp;&lt;/font&gt;" style="text;html=1;align=center;verticalAlign=middle;whiteSpace=wrap;rounded=0;" vertex="1" parent="1">
          <mxGeometry x="308" y="460" width="160" height="40" as="geometry" />
        </mxCell>
        <mxCell id="fBiR9kypp7mtVQSwHApV-21" value="Internet" style="text;html=1;align=center;verticalAlign=middle;whiteSpace=wrap;rounded=0;" vertex="1" parent="1">
          <mxGeometry x="450" y="260" width="60" height="30" as="geometry" />
        </mxCell>
      </root>
    </mxGraphModel>
  </diagram>
</mxfile>
